<mxfile host="Electron" modified="2024-01-18T03:56:55.854Z" agent="Mozilla/5.0 (Windows NT 10.0; Win64; x64) AppleWebKit/537.36 (KHTML, like Gecko) draw.io/22.1.2 Chrome/114.0.5735.289 Electron/25.9.4 Safari/537.36" etag="WVLsJkn-cTT2Z7ZU6TQE" version="22.1.2" type="device">
  <diagram name="페이지-1" id="GfiJ1iN8JV5xUJaemmuL">
    <mxGraphModel dx="1434" dy="836" grid="1" gridSize="10" guides="1" tooltips="1" connect="1" arrows="1" fold="1" page="1" pageScale="1" pageWidth="827" pageHeight="1169" math="0" shadow="0">
      <root>
        <mxCell id="0" />
        <mxCell id="1" parent="0" />
        <mxCell id="OTgq8eyqKhiYHOBY--ux-1" value="Cookies" style="rounded=0;whiteSpace=wrap;html=1;fontFamily=a고딕14;" vertex="1" parent="1">
          <mxGeometry x="120" y="100" width="160" height="40" as="geometry" />
        </mxCell>
        <mxCell id="OTgq8eyqKhiYHOBY--ux-2" value="Storage" style="rounded=0;whiteSpace=wrap;html=1;fontFamily=a고딕14;" vertex="1" parent="1">
          <mxGeometry x="120" y="140" width="60" height="80" as="geometry" />
        </mxCell>
        <mxCell id="OTgq8eyqKhiYHOBY--ux-3" value="Local storage" style="rounded=0;whiteSpace=wrap;html=1;fontFamily=a고딕14;" vertex="1" parent="1">
          <mxGeometry x="180" y="140" width="100" height="40" as="geometry" />
        </mxCell>
        <mxCell id="OTgq8eyqKhiYHOBY--ux-4" value="Session storage" style="rounded=0;whiteSpace=wrap;html=1;fontFamily=a고딕14;" vertex="1" parent="1">
          <mxGeometry x="180" y="180" width="100" height="40" as="geometry" />
        </mxCell>
        <mxCell id="OTgq8eyqKhiYHOBY--ux-5" value="request객체에 무조건 포함되어서 전달, 수신&lt;br&gt;서버에서 제어" style="rounded=0;whiteSpace=wrap;html=1;fontFamily=a고딕14;" vertex="1" parent="1">
          <mxGeometry x="280" y="100" width="320" height="40" as="geometry" />
        </mxCell>
        <mxCell id="OTgq8eyqKhiYHOBY--ux-6" value="client에 저장되고 창을 닫아도 유지됨" style="rounded=0;whiteSpace=wrap;html=1;fontFamily=a고딕14;" vertex="1" parent="1">
          <mxGeometry x="280" y="140" width="320" height="40" as="geometry" />
        </mxCell>
        <mxCell id="OTgq8eyqKhiYHOBY--ux-7" value="client에 저장되고 창을 닫으면 사라짐" style="rounded=0;whiteSpace=wrap;html=1;fontFamily=a고딕14;" vertex="1" parent="1">
          <mxGeometry x="280" y="180" width="320" height="40" as="geometry" />
        </mxCell>
        <mxCell id="OTgq8eyqKhiYHOBY--ux-8" value="Cookies 와 Storage 공통점" style="rounded=0;whiteSpace=wrap;html=1;fontFamily=a고딕14;" vertex="1" parent="1">
          <mxGeometry x="40" y="40" width="240" height="40" as="geometry" />
        </mxCell>
        <mxCell id="OTgq8eyqKhiYHOBY--ux-9" value="정보를 서버에 저장하지 않고 client 환경에 저장" style="rounded=0;whiteSpace=wrap;html=1;fontFamily=a고딕14;" vertex="1" parent="1">
          <mxGeometry x="280" y="40" width="320" height="40" as="geometry" />
        </mxCell>
        <mxCell id="OTgq8eyqKhiYHOBY--ux-10" value="Cookies 와 Storage&lt;br&gt;차이점" style="rounded=0;whiteSpace=wrap;html=1;fontFamily=a고딕14;" vertex="1" parent="1">
          <mxGeometry x="40" y="100" width="80" height="120" as="geometry" />
        </mxCell>
      </root>
    </mxGraphModel>
  </diagram>
</mxfile>
